		
                
                
	<svg width="158.76" height="22.62" viewBox="0 0 158.76 22.62" xmlns="http://www.w3.org/2000/svg">
		<style>
		<![CDATA[
			  /* Google chrome */
			  @-webkit-keyframes svg-text-anim {
			   40% {
				  stroke-dashoffset: 0;
				  fill: transparent;
				}
				60% {
				  stroke-dashoffset: 0;
				  fill: #fff;
				}
				100% {
				  stroke-dashoffset: 0;
				  fill: #fff;
				}
				
			}
		/* Most browsers */
		@keyframes svg-text-anim {
		   40% {
			  stroke-dashoffset: 0;
			  fill: transparent;
			}
			60% {
			  stroke-dashoffset: 0;
			  fill: #fff;
			}
			100% {
			  stroke-dashoffset: 0;
			  fill: #fff;
			}
			
		}
		]]>
		</style>
		
            <g id="svgGroup" stroke-linecap="round" fill-rule="evenodd" font-size="9pt" stroke="#000" stroke-width="0.25mm" fill="none" style="stroke:#000;stroke-width:0.25mm;fill:none">
                <path d="M 11.55 10.86 L 11.55 10.98 A 5.84 5.84 0 0 1 13.204 11.827 A 5.13 5.13 0 0 1 14.25 12.87 Q 15.24 14.19 15.24 16.26 A 6.875 6.875 0 0 1 14.999 18.114 A 5.793 5.793 0 0 1 14.385 19.545 A 5.689 5.689 0 0 1 12.387 21.512 A 7.04 7.04 0 0 1 11.895 21.78 A 7.553 7.553 0 0 1 9.861 22.435 A 10.511 10.511 0 0 1 8.01 22.59 A 11.882 11.882 0 0 1 5.634 22.366 Q 4.175 22.069 3.042 21.374 A 6.807 6.807 0 0 1 2.265 20.82 Q 0.221 19.133 0.016 15.811 A 11.835 11.835 0 0 1 0 15.48 L 4.98 15.48 A 4.02 4.02 0 0 0 5.091 16.357 Q 5.244 16.974 5.606 17.423 A 2.484 2.484 0 0 0 5.73 17.565 A 2.307 2.307 0 0 0 6.8 18.199 Q 7.259 18.33 7.83 18.33 A 3.25 3.25 0 0 0 8.572 18.25 Q 9.13 18.12 9.521 17.774 A 2.029 2.029 0 0 0 9.645 17.655 A 2.282 2.282 0 0 0 10.238 16.468 A 3.257 3.257 0 0 0 10.29 15.87 A 3.568 3.568 0 0 0 10.209 15.085 Q 10.094 14.573 9.812 14.204 A 1.986 1.986 0 0 0 9.375 13.785 A 2.83 2.83 0 0 0 8.637 13.425 Q 7.785 13.14 6.45 13.14 L 5.49 13.14 L 5.49 8.97 L 6.45 8.97 A 7.316 7.316 0 0 0 7.433 8.908 Q 8.305 8.79 8.925 8.445 A 1.75 1.75 0 0 0 9.799 7.247 A 3.022 3.022 0 0 0 9.87 6.57 Q 9.87 5.49 9.27 4.89 A 1.985 1.985 0 0 0 8.289 4.361 A 2.977 2.977 0 0 0 7.62 4.29 A 2.983 2.983 0 0 0 6.965 4.358 Q 6.538 4.454 6.227 4.687 A 1.689 1.689 0 0 0 5.925 4.98 A 2.896 2.896 0 0 0 5.368 6.139 A 3.804 3.804 0 0 0 5.28 6.69 L 0.27 6.69 A 8.677 8.677 0 0 1 0.584 4.615 A 5.904 5.904 0 0 1 2.37 1.74 A 6.68 6.68 0 0 1 5.131 0.31 Q 6.144 0.044 7.343 0.006 A 12.731 12.731 0 0 1 7.74 0 A 10.873 10.873 0 0 1 9.524 0.139 Q 10.524 0.305 11.36 0.671 A 6.575 6.575 0 0 1 11.595 0.78 A 6.291 6.291 0 0 1 13.024 1.719 A 5.212 5.212 0 0 1 14.025 2.91 A 5.661 5.661 0 0 1 14.848 5.783 A 6.749 6.749 0 0 1 14.85 5.94 A 6.488 6.488 0 0 1 14.711 7.322 Q 14.497 8.304 13.954 9.042 A 4.101 4.101 0 0 1 13.86 9.165 A 5.664 5.664 0 0 1 12.824 10.185 A 4.589 4.589 0 0 1 11.55 10.86 Z" id="0" vector-effect="non-scaling-stroke"/><path d="M 26.64 22.41 L 18.75 22.41 L 18.75 1.35 L 26.64 1.35 A 14.228 14.228 0 0 1 29.577 1.64 A 10.933 10.933 0 0 1 32.46 2.67 Q 34.95 3.99 36.315 6.375 Q 37.68 8.76 37.68 11.88 A 11.916 11.916 0 0 1 37.272 15.053 A 10.071 10.071 0 0 1 36.315 17.37 Q 34.95 19.77 32.445 21.09 Q 29.94 22.41 26.64 22.41 Z M 26.31 5.73 L 23.88 5.73 L 23.88 17.97 L 26.31 17.97 Q 28.711 17.97 30.234 16.887 A 4.998 4.998 0 0 0 30.84 16.38 A 5.178 5.178 0 0 0 32.213 13.952 Q 32.46 13.017 32.46 11.88 A 8.392 8.392 0 0 0 32.269 10.033 Q 31.985 8.774 31.279 7.851 A 5.027 5.027 0 0 0 30.84 7.35 Q 29.278 5.788 26.517 5.732 A 10.207 10.207 0 0 0 26.31 5.73 Z" id="1" vector-effect="non-scaling-stroke"/><path d="M 64.74 1.35 L 70.77 1.35 L 70.77 22.41 L 65.64 22.41 L 65.64 9.78 L 60.93 22.41 L 56.79 22.41 L 52.05 9.75 L 52.05 22.41 L 46.92 22.41 L 46.92 1.35 L 52.98 1.35 L 58.89 15.93 L 64.74 1.35 Z" id="3" vector-effect="non-scaling-stroke"/><path d="M 87.36 5.46 L 79.59 5.46 L 79.59 9.72 L 86.46 9.72 L 86.46 13.68 L 79.59 13.68 L 79.59 18.3 L 87.36 18.3 L 87.36 22.41 L 74.46 22.41 L 74.46 1.35 L 87.36 1.35 L 87.36 5.46 Z" id="4" vector-effect="non-scaling-stroke"/><path d="M 98.58 22.41 L 90.69 22.41 L 90.69 1.35 L 98.58 1.35 A 14.228 14.228 0 0 1 101.517 1.64 A 10.933 10.933 0 0 1 104.4 2.67 Q 106.89 3.99 108.255 6.375 Q 109.62 8.76 109.62 11.88 A 11.916 11.916 0 0 1 109.212 15.053 A 10.071 10.071 0 0 1 108.255 17.37 Q 106.89 19.77 104.385 21.09 Q 101.88 22.41 98.58 22.41 Z M 98.25 5.73 L 95.82 5.73 L 95.82 17.97 L 98.25 17.97 Q 100.651 17.97 102.174 16.887 A 4.998 4.998 0 0 0 102.78 16.38 A 5.178 5.178 0 0 0 104.153 13.952 Q 104.4 13.017 104.4 11.88 A 8.392 8.392 0 0 0 104.209 10.033 Q 103.925 8.774 103.219 7.851 A 5.027 5.027 0 0 0 102.78 7.35 Q 101.218 5.788 98.457 5.732 A 10.207 10.207 0 0 0 98.25 5.73 Z" id="5" vector-effect="non-scaling-stroke"/><path d="M 112.5 1.35 L 117.63 1.35 L 117.63 22.41 L 112.5 22.41 L 112.5 1.35 Z" id="6" vector-effect="non-scaling-stroke"/><path d="M 135.72 22.41 L 134.46 18.69 L 126.6 18.69 L 125.34 22.41 L 119.97 22.41 L 127.59 1.35 L 133.53 1.35 L 141.15 22.41 L 135.72 22.41 Z M 127.95 14.73 L 133.14 14.73 L 130.53 7.02 L 127.95 14.73 Z" id="7" vector-effect="non-scaling-stroke"/><path d="M 142.86 16.11 L 148.32 16.11 Q 148.44 17.28 149.13 17.895 A 2.375 2.375 0 0 0 150.275 18.45 A 3.384 3.384 0 0 0 150.93 18.51 A 4.003 4.003 0 0 0 151.653 18.449 Q 152.296 18.331 152.73 17.985 A 1.71 1.71 0 0 0 153.382 16.736 A 2.439 2.439 0 0 0 153.39 16.53 A 1.897 1.897 0 0 0 153.278 15.868 A 1.679 1.679 0 0 0 152.865 15.24 Q 152.34 14.73 151.575 14.4 A 10.513 10.513 0 0 0 151.152 14.229 Q 150.62 14.027 149.876 13.795 A 39.305 39.305 0 0 0 149.4 13.65 A 34.173 34.173 0 0 1 148.031 13.197 Q 147.393 12.97 146.852 12.743 A 15.171 15.171 0 0 1 146.07 12.39 A 6.079 6.079 0 0 1 144.028 10.755 A 7.159 7.159 0 0 1 143.85 10.53 A 4.393 4.393 0 0 1 143.1 8.916 Q 142.945 8.292 142.924 7.562 A 8.141 8.141 0 0 1 142.92 7.32 A 6.497 6.497 0 0 1 143.239 5.237 A 5.296 5.296 0 0 1 145.05 2.715 A 7.536 7.536 0 0 1 147.944 1.346 Q 149.043 1.078 150.331 1.053 A 13.74 13.74 0 0 1 150.6 1.05 Q 154.08 1.05 156.21 2.715 Q 158.34 4.38 158.49 7.35 L 152.94 7.35 A 2.589 2.589 0 0 0 152.792 6.606 A 2.028 2.028 0 0 0 152.19 5.745 A 2.419 2.419 0 0 0 151.057 5.217 A 3.396 3.396 0 0 0 150.42 5.16 Q 149.49 5.16 148.92 5.655 A 1.602 1.602 0 0 0 148.406 6.538 A 2.457 2.457 0 0 0 148.35 7.08 A 1.693 1.693 0 0 0 148.96 8.42 A 2.434 2.434 0 0 0 149.31 8.67 A 7.456 7.456 0 0 0 149.935 8.998 Q 150.631 9.325 151.653 9.68 A 32.799 32.799 0 0 0 152.31 9.9 Q 153.681 10.364 154.706 10.8 A 17.984 17.984 0 0 1 155.625 11.22 A 6.258 6.258 0 0 1 157.698 12.884 A 7.293 7.293 0 0 1 157.83 13.05 A 4.295 4.295 0 0 1 158.615 14.756 Q 158.76 15.394 158.76 16.14 Q 158.76 17.94 157.845 19.41 A 6.137 6.137 0 0 1 155.936 21.325 A 7.73 7.73 0 0 1 155.19 21.75 A 8.023 8.023 0 0 1 152.968 22.465 A 10.983 10.983 0 0 1 151.08 22.62 A 12.198 12.198 0 0 1 148.793 22.415 A 9.63 9.63 0 0 1 146.94 21.87 A 7.088 7.088 0 0 1 144.94 20.651 A 6.439 6.439 0 0 1 144.015 19.65 A 5.795 5.795 0 0 1 142.938 17.002 A 7.47 7.47 0 0 1 142.86 16.11 Z" id="8" vector-effect="non-scaling-stroke"/>
            </g>
        
		<script>
			<![CDATA[
				function setTextAnimation(delay, duration, strokeWidth, timingFunction, strokeColor,repeat) {
					let paths = document.querySelectorAll("path");
					let mode=repeat?'infinite':'forwards'
					for (let i = 0; i < paths.length; i++) {
						const path = paths[i];
						const length = path.getTotalLength();
						path.style["stroke-dashoffset"] = `${length}px`;
						path.style["stroke-dasharray"] = `${length}px`;
						path.style["stroke-width"] = `${strokeWidth}px`;
						path.style["stroke"] = `${strokeColor}`;
						path.style["animation"] = `${duration}s svg-text-anim ${mode} ${timingFunction}`;
						path.style["animation-delay"] = `${i * delay}s`;
					}
				}
				 setTextAnimation(0.1,5,1,'linear','#fff',true);
				 ]]>
		</script>
	</svg>
                
                
                